<?xml version="1.0" encoding="UTF-8" standalone="no"?>
<svg
   width="76"
   zoomAndPan="magnify"
   viewBox="0 0 57 48.749997"
   height="65"
   preserveAspectRatio="xMidYMid"
   version="1.0"
   id="svg23"
   sodipodi:docname="Logo.svg"
   inkscape:export-filename="..\Logo.svg"
   inkscape:export-xdpi="47.261539"
   inkscape:export-ydpi="47.261539"
   xmlns:inkscape="http://www.inkscape.org/namespaces/inkscape"
   xmlns:sodipodi="http://sodipodi.sourceforge.net/DTD/sodipodi-0.dtd"
   xmlns="http://www.w3.org/2000/svg"
   xmlns:svg="http://www.w3.org/2000/svg">
  <sodipodi:namedview
     id="namedview23"
     pagecolor="#ffffff"
     bordercolor="#000000"
     borderopacity="0"
     inkscape:showpageshadow="2"
     inkscape:pageopacity="0.0"
     inkscape:pagecheckerboard="0"
     inkscape:deskcolor="#d1d1d1" />
  <defs
     id="defs1">
    <clipPath
       id="3f6ae18095">
      <path
         d="M 0.03125,17.335938 H 56.972656 V 39.8125 H 0.03125 Z m 0,0"
         clip-rule="nonzero"
         id="path1" />
    </clipPath>
  </defs>
  <g
     clip-path="url(#3f6ae18095)"
     id="g2"
     style="fill:#ffffff">
    <path
       fill="#020227"
       d="m 28.502105,21.50751 c -0.675782,0 -1.226563,0.546875 -1.226563,1.222656 0,0.675781 0.550781,1.226562 1.226563,1.226562 0.675781,0 1.222656,-0.550781 1.222656,-1.226562 0,-0.675781 -0.546875,-1.222656 -1.222656,-1.222656 z m 27.878906,-4.070313 h -12.875 c -0.339844,0 -0.613282,0.277344 -0.613282,0.613281 0,0.335938 0.273438,0.609376 0.613282,0.609376 h 5.824218 v 3.460937 H 38.732573 c -0.953125,0 -1.730468,-0.777344 -1.730468,-1.730469 0,-1.625 -1.324219,-2.953125 -2.953126,-2.953125 H 23.209136 c -1.628907,0 -2.953125,1.328125 -2.953125,2.953125 0,0.953125 -0.777344,1.730469 -1.730469,1.730469 H 7.670073 v -3.460937 h 5.824219 c 0.339844,0 0.613281,-0.273438 0.613281,-0.609376 0,-0.335937 -0.273437,-0.613281 -0.613281,-0.613281 H 0.61929201 c -0.33593703,0 -0.60937503,0.277344 -0.60937503,0.613281 0,0.335938 0.273438,0.609376 0.60937503,0.609376 H 6.447417 v 6.882812 c 0,0.339844 0.273438,0.613281 0.609375,0.613281 h 14.90625 c 0.324219,0 0.585937,0.261719 0.585937,0.582031 0,0.285157 0.06641,0.554688 0.183594,0.792969 l -5.757812,11.148438 h -0.390625 c -0.335938,0 -0.613281,0.273437 -0.613281,0.613281 0,0.335938 0.277343,0.609375 0.613281,0.609375 h 0.761719 c 0.0039,0 0.0039,0 0.0039,0 h 1.21875 c 0.339844,0 0.613281,-0.273437 0.613281,-0.609375 0,-0.339844 -0.273437,-0.613281 -0.613281,-0.613281 h -0.21875 l 5.308594,-10.273438 c 0.214843,0.08984 0.449218,0.140625 0.695312,0.140625 h 8.550781 c 0.164063,0 0.324219,-0.02344 0.476563,-0.06641 l 5.269531,10.199219 h -0.21875 c -0.339844,0 -0.613281,0.273437 -0.613281,0.613281 0,0.335938 0.273437,0.609375 0.613281,0.609375 h 1.21875 c 0.0039,0 0.0039,0 0.0039,0 0,0 0,0 0.0039,0 h 0.757812 c 0.339844,0 0.613281,-0.273437 0.613281,-0.609375 0,-0.339844 -0.273437,-0.613281 -0.613281,-0.613281 H 40.025542 L 34.388823,27.765322 c 0.203125,-0.289062 0.320313,-0.644531 0.320313,-1.027344 0,-0.320312 0.261719,-0.582031 0.585937,-0.582031 h 14.648438 c 0.335937,0 0.609375,-0.273437 0.609375,-0.613281 v -6.882812 h 5.828125 c 0.335937,0 0.609375,-0.273438 0.609375,-0.609376 0,-0.335937 -0.273438,-0.613281 -0.609375,-0.613281 z m -27.878906,7.742188 c -1.351563,0 -2.449219,-1.097657 -2.449219,-2.449219 0,-1.347656 1.097656,-2.445312 2.449219,-2.445312 1.347656,0 2.445312,1.097656 2.445312,2.445312 0,1.351562 -1.097656,2.449219 -2.445312,2.449219 z m 0,0"
       fill-opacity="1"
       fill-rule="nonzero"
       id="path2"
       style="fill:#241c1c" />
  </g>
</svg>
